name N:\Shared_Data\HIL\Data Collection\CoPD-X-MoreData\processed\iteration012\grf0012.mot
datacolumns 19
datarows 91
range 2322.111175 2322.26117
endheader
time	ground_force1_vx	ground_force1_vy	ground_force1_vz	ground_force1_px	ground_force1_py	ground_force1_pz	ground_force2_vx	ground_force2_vy	ground_force2_vz	ground_force2_px	ground_force2_py	ground_force2_pz	ground_torque1_x	ground_torque1_y	ground_torque1_z	ground_torque2_x	ground_torque2_y	ground_torque2_z	
2322.111175	39.85982887	745.6016644	52.30171258	5.241259236	0	0.15743402	0	0	0	0	0	0	0	11.81372713	0	0	0	0	
2322.112844	39.10003501	743.8029272	52.08342107	5.241511489	0	0.1574750226	0	0	0	0	0	0	0	11.84193553	0	0	0	0	
2322.114509	38.34169206	742.0251429	51.86394555	5.24172835	0	0.1575160856	0	0	0	0	0	0	0	11.8688059	0	0	0	0	
2322.116176	37.58533007	740.2717179	51.64347224	5.241909725	0	0.1575571843	0	0	0	0	0	0	0	11.89423833	0	0	0	0	
2322.117838	36.83151504	738.5459132	51.42219376	5.242055807	0	0.1575982848	0	0	0	0	0	0	0	11.91814101	0	0	0	0	
2322.119507	36.08084487	736.8508365	51.20030851	5.242167079	0	0.1576393438	0	0	0	0	0	0	0	11.94043088	0	0	0	0	
2322.121178	35.33394513	735.1894347	50.97802001	5.242244309	0	0.157680309	0	0	0	0	0	0	0	11.96103416	0	0	0	0	
2322.122842	34.59146444	733.5644874	50.75553606	5.242288541	0	0.1577211193	0	0	0	0	0	0	0	11.97988679	0	0	0	0	
2322.124511	33.85406977	731.9786018	50.53306792	5.242301095	0	0.1577617054	0	0	0	0	0	0	0	11.99693479	0	0	0	0	
2322.126172	33.12244146	730.4342072	50.31082942	5.242283549	0	0.1578019898	0	0	0	0	0	0	0	12.01213451	0	0	0	0	
2322.127836	32.39726818	728.9335524	50.08903599	5.242237732	0	0.1578418881	0	0	0	0	0	0	0	12.02545287	0	0	0	0	
2322.129506	31.67924171	727.4787021	49.86790368	5.242165706	0	0.1578813088	0	0	0	0	0	0	0	12.03686739	0	0	0	0	
2322.131174	30.96905172	726.0715355	49.64764818	5.242069753	0	0.1579201546	0	0	0	0	0	0	0	12.04636629	0	0	0	0	
2322.132836	30.26738047	724.7137451	49.42848373	5.241952355	0	0.1579583231	0	0	0	0	0	0	0	12.05394843	0	0	0	0	
2322.134512	29.57489752	723.4068369	49.2106222	5.241816175	0	0.1579957075	0	0	0	0	0	0	0	12.05962326	0	0	0	0	
2322.136171	28.89225454	722.1521314	48.99427198	5.241664032	0	0.1580321975	0	0	0	0	0	0	0	12.06341061	0	0	0	0	
2322.137839	28.2200801	720.9507647	48.77963706	5.241498884	0	0.1580676803	0	0	0	0	0	0	0	12.0653406	0	0	0	0	
2322.13951	27.55897465	719.8036917	48.56691606	5.241323798	0	0.158102042	0	0	0	0	0	0	0	12.06545334	0	0	0	0	
2322.141175	26.9095056	718.7116889	48.35630134	5.241141928	0	0.1581351679	0	0	0	0	0	0	0	12.06379874	0	0	0	0	
2322.142843	26.27220262	717.6753587	48.14797814	5.240956488	0	0.1581669442	0	0	0	0	0	0	0	12.06043622	0	0	0	0	
2322.144506	25.64755307	716.6951342	47.94212382	5.240770728	0	0.1581972589	0	0	0	0	0	0	0	12.05543443	0	0	0	0	
2322.146178	25.03599781	715.7712843	47.73890718	5.240587901	0	0.1582260027	0	0	0	0	0	0	0	12.04887094	0	0	0	0	
2322.14784	24.4379271	714.90392	47.53848782	5.240411244	0	0.1582530702	0	0	0	0	0	0	0	12.04083198	0	0	0	0	
2322.149508	23.85367701	714.0930007	47.34101566	5.240243945	0	0.1582783613	0	0	0	0	0	0	0	12.03141205	0	0	0	0	
2322.151171	23.28352595	713.3383415	47.14663048	5.240089121	0	0.1583017817	0	0	0	0	0	0	0	12.02071369	0	0	0	0	
2322.152841	22.72769171	712.6396205	46.95546164	5.239949788	0	0.1583232442	0	0	0	0	0	0	0	12.00884707	0	0	0	0	
2322.154511	22.18632884	711.9963869	46.76762784	5.239828844	0	0.1583426698	0	0	0	0	0	0	0	11.99592973	0	0	0	0	
2322.156173	21.65952637	711.4080689	46.58323701	5.239729035	0	0.1583599884	0	0	0	0	0	0	0	11.98208616	0	0	0	0	
2322.157844	21.14730603	710.8739824	46.40238625	5.239652941	0	0.1583751397	0	0	0	0	0	0	0	11.9674475	0	0	0	0	
2322.159511	20.64962085	710.3933398	46.22516197	5.239602953	0	0.1583880741	0	0	0	0	0	0	0	11.95215114	0	0	0	0	
2322.161176	20.16635424	709.9652586	46.05163997	5.239581252	0	0.1583987535	0	0	0	0	0	0	0	11.93634035	0	0	0	0	
2322.162838	19.69731951	709.5887705	45.88188577	5.239589794	0	0.1584071516	0	0	0	0	0	0	0	11.92016383	0	0	0	0	
2322.164507	19.24225981	709.2628304	45.71595483	5.239630294	0	0.1584132549	0	0	0	0	0	0	0	11.90377533	0	0	0	0	
2322.16617	18.80084864	708.9863255	45.55389302	5.239704211	0	0.1584170629	0	0	0	0	0	0	0	11.88733316	0	0	0	0	
2322.167841	18.3726907	708.7580838	45.39573701	5.23981274	0	0.1584185885	0	0	0	0	0	0	0	11.87099973	0	0	0	0	
2322.169509	17.95732323	708.5768837	45.24151478	5.239956803	0	0.1584178586	0	0	0	0	0	0	0	11.85494107	0	0	0	0	
2322.171173	17.55421785	708.4414617	45.09124617	5.240137041	0	0.1584149137	0	0	0	0	0	0	0	11.83932629	0	0	0	0	
2322.172843	17.16278274	708.3505214	44.94494342	5.240353808	0	0.1584098085	0	0	0	0	0	0	0	11.82432707	0	0	0	0	
2322.174506	16.78236532	708.3027418	44.80261177	5.240607174	0	0.1584026117	0	0	0	0	0	0	0	11.81011709	0	0	0	0	
2322.176179	16.41225524	708.2967846	44.66425008	5.240896925	0	0.158393406	0	0	0	0	0	0	0	11.79687149	0	0	0	0	
2322.17784	16.05168785	708.3313022	44.52985147	5.241222561	0	0.1583822875	0	0	0	0	0	0	0	11.78476629	0	0	0	0	
2322.17951	15.69984791	708.404945	44.39940388	5.241583306	0	0.1583693659	0	0	0	0	0	0	0	11.77397782	0	0	0	0	
2322.181169	15.35587376	708.5163675	44.2728908	5.241978115	0	0.1583547636	0	0	0	0	0	0	0	11.76468213	0	0	0	0	
2322.182836	15.01886167	708.6642354	44.1502918	5.242405682	0	0.1583386157	0	0	0	0	0	0	0	11.75705439	0	0	0	0	
2322.184506	14.68787056	708.8472311	44.03158318	5.242864452	0	0.1583210687	0	0	0	0	0	0	0	11.75126832	0	0	0	0	
2322.18617	14.36192692	709.0640591	43.91673858	5.243352635	0	0.1583022804	0	0	0	0	0	0	0	11.74749563	0	0	0	0	
2322.187839	14.04002996	709.3134512	43.80572956	5.243868222	0	0.1582824189	0	0	0	0	0	0	0	11.74590538	0	0	0	0	
2322.189504	13.72115699	709.5941709	43.69852616	5.244409001	0	0.1582616615	0	0	0	0	0	0	0	11.74666342	0	0	0	0	
2322.191172	13.40426886	709.9050172	43.59509743	5.244972574	0	0.1582401942	0	0	0	0	0	0	0	11.74993186	0	0	0	0	
2322.192838	13.08831566	710.2448281	43.49541198	5.245556382	0	0.1582182103	0	0	0	0	0	0	0	11.75586842	0	0	0	0	
2322.194511	12.77224235	710.6124837	43.39943845	5.246157719	0	0.1581959093	0	0	0	0	0	0	0	11.76462595	0	0	0	0	
2322.196175	12.4549946	711.0069085	43.30714597	5.246773761	0	0.158173496	0	0	0	0	0	0	0	11.77635181	0	0	0	0	
2322.197836	12.13552451	711.4270734	43.21850459	5.247401583	0	0.1581511792	0	0	0	0	0	0	0	11.79118737	0	0	0	0	
2322.199505	11.81279643	711.8719972	43.1334857	5.248038186	0	0.1581291704	0	0	0	0	0	0	0	11.80926747	0	0	0	0	
2322.20117	11.48579262	712.3407476	43.0520623	5.24868052	0	0.1581076826	0	0	0	0	0	0	0	11.83071988	0	0	0	0	
2322.202838	11.15351888	712.8324417	42.97420941	5.24932551	0	0.158086929	0	0	0	0	0	0	0	11.85566485	0	0	0	0	
2322.204506	10.81501005	713.3462461	42.89990423	5.249970075	0	0.1580671217	0	0	0	0	0	0	0	11.8842146	0	0	0	0	
2322.206175	10.46933529	713.8813767	42.82912645	5.250611159	0	0.1580484704	0	0	0	0	0	0	0	11.91647289	0	0	0	0	
2322.207836	10.11560322	714.4370978	42.76185834	5.251245751	0	0.1580311811	0	0	0	0	0	0	0	11.95253458	0	0	0	0	
2322.209506	9.752966767	715.0127214	42.6980849	5.25187091	0	0.1580154548	0	0	0	0	0	0	0	11.99248526	0	0	0	0	
2322.211178	9.380627819	715.6076055	42.63779392	5.252483785	0	0.1580014863	0	0	0	0	0	0	0	12.03640091	0	0	0	0	
2322.212838	8.997841485	716.2211526	42.58097602	5.253081643	0	0.1579894628	0	0	0	0	0	0	0	12.08434755	0	0	0	0	
2322.214506	8.603920111	716.8528075	42.52762457	5.253661882	0	0.1579795633	0	0	0	0	0	0	0	12.13638099	0	0	0	0	
2322.216177	8.198236901	717.5020554	42.47773565	5.25422206	0	0.1579719565	0	0	0	0	0	0	0	12.19254662	0	0	0	0	
2322.217839	7.780229186	718.1684193	42.43130794	5.254759905	0	0.1579668009	0	0	0	0	0	0	0	12.25287918	0	0	0	0	
2322.219504	7.349401298	718.8514572	42.38834255	5.255273337	0	0.1579642428	0	0	0	0	0	0	0	12.31740265	0	0	0	0	
2322.221179	6.905327042	719.5507598	42.34884287	5.255760485	0	0.1579644161	0	0	0	0	0	0	0	12.38613014	0	0	0	0	
2322.222844	6.447651751	720.2659471	42.31281433	5.256219697	0	0.1579674413	0	0	0	0	0	0	0	12.45906383	0	0	0	0	
2322.224504	5.976093915	720.9966657	42.28026421	5.256649554	0	0.1579734244	0	0	0	0	0	0	0	12.53619496	0	0	0	0	
2322.226174	5.490446388	721.7425858	42.2512014	5.257048879	0	0.1579824571	0	0	0	0	0	0	0	12.61750384	0	0	0	0	
2322.227841	4.990577154	722.5033979	42.22563617	5.257416751	0	0.1579946153	0	0	0	0	0	0	0	12.70295991	0	0	0	0	
2322.229505	4.476429671	723.2788098	42.20357996	5.257752502	0	0.1580099596	0	0	0	0	0	0	0	12.79252184	0	0	0	0	
2322.231174	3.948022774	724.0685435	42.18504511	5.25805573	0	0.1580285345	0	0	0	0	0	0	0	12.88613762	0	0	0	0	
2322.232844	3.40545017	724.8723322	42.17004474	5.258326297	0	0.1580503682	0	0	0	0	0	0	0	12.98374474	0	0	0	0	
2322.234504	2.848879499	725.6899173	42.15859249	5.258564328	0	0.1580754728	0	0	0	0	0	0	0	13.08527034	0	0	0	0	
2322.236172	2.278551001	726.5210452	42.15070243	5.258770213	0	0.1581038442	0	0	0	0	0	0	0	13.1906314	0	0	0	0	
2322.237838	1.694775779	727.365465	42.14638889	5.258944601	0	0.1581354624	0	0	0	0	0	0	0	13.299735	0	0	0	0	
2322.239502	1.097933681	728.2229253	42.1456664	5.259088393	0	0.1581702914	0	0	0	0	0	0	0	13.41247851	0	0	0	0	
2322.241173	0.4884708069	729.0931718	42.14854958	5.259202736	0	0.1582082801	0	0	0	0	0	0	0	13.52874991	0	0	0	0	
2322.242836	-0.1331033264	729.9759451	42.15505317	5.259289011	0	0.1582493627	0	0	0	0	0	0	0	13.64842803	0	0	0	0	
2322.24451	-0.7662189692	730.8709778	42.16519194	5.259348824	0	0.1582934588	0	0	0	0	0	0	0	13.77138292	0	0	0	0	
2322.246174	-1.410249629	731.7779928	42.17898081	5.259383992	0	0.1583404748	0	0	0	0	0	0	0	13.89747613	0	0	0	0	
2322.247843	-2.064515858	732.6967013	42.19643482	5.259396524	0	0.1583903043	0	0	0	0	0	0	0	14.02656112	0	0	0	0	
2322.249508	-2.728289309	733.6268007	42.21756923	5.259388612	0	0.1584428291	0	0	0	0	0	0	0	14.15848364	0	0	0	0	
2322.251176	-3.400797038	734.5679729	42.24239961	5.259362607	0	0.1584979202	0	0	0	0	0	0	0	14.29308215	0	0	0	0	
2322.252836	-4.081226024	735.5198833	42.27094194	5.259321003	0	0.1585554389	0	0	0	0	0	0	0	14.43018825	0	0	0	0	
2322.254508	-4.768727872	736.4821786	42.30321268	5.259266416	0	0.1586152374	0	0	0	0	0	0	0	14.56962719	0	0	0	0	
2322.256176	-5.462423682	737.4544865	42.33922892	5.259201565	0	0.1586771608	0	0	0	0	0	0	0	14.71121834	0	0	0	0	
2322.257838	-6.161409036	738.4364139	42.37900849	5.259129249	0	0.1587410477	0	0	0	0	0	0	0	14.85477575	0	0	0	0	
2322.259504	-6.864759087	739.4275465	42.42257003	5.259052327	0	0.1588067317	0	0	0	0	0	0	0	15.00010866	0	0	0	0	
2322.26117	-7.571533698	740.4274475	42.46993311	5.258973692	0	0.1588740422	0	0	0	0	0	0	0	15.14702212	0	0	0	0	
